<?xml version="1.0" encoding="UTF-8" standalone="no"?>
<!DOCTYPE svg PUBLIC "-//W3C//DTD SVG 1.1//EN" "http://www.w3.org/Graphics/SVG/1.1/DTD/svg11.dtd">
<svg xmlns="http://www.w3.org/2000/svg" version="1.1" viewBox="0.00 0.00 330.00 30.00">
<path fill="#feffff" d="
  M 11.64 10.53
  C 12.73 12.41 17.33 12.70 19.31 13.11
  C 26.06 14.52 25.61 24.98 19.50 26.87
  Q 12.01 29.18 6.04 24.25
  Q 4.84 23.26 5.73 21.98
  Q 5.91 21.73 6.07 21.48
  Q 7.23 19.62 9.19 20.60
  Q 13.17 22.59 17.46 21.83
  Q 19.29 21.51 18.93 19.53
  A 1.72 1.72 0.0 0 0 17.61 18.15
  C 13.78 17.27 6.57 16.45 5.80 11.47
  Q 5.04 6.57 9.16 4.12
  Q 15.00 0.65 21.90 4.22
  Q 24.15 5.39 23.17 7.73
  Q 23.12 7.86 23.06 7.98
  Q 22.00 10.11 19.95 8.91
  Q 16.91 7.12 12.91 7.82
  A 1.83 1.83 0.0 0 0 11.64 10.53
  Z"
/>
<path fill="#feffff" d="
  M 232.70 9.34
  Q 232.64 11.17 234.58 11.71
  C 237.51 12.54 241.30 12.54 243.71 14.40
  Q 247.43 17.26 245.90 21.89
  C 243.45 29.32 231.39 29.29 227.29 23.40
  A 1.11 1.10 -44.0 0 1 227.32 22.11
  Q 228.21 20.95 229.41 20.21
  Q 230.02 19.84 230.60 20.25
  Q 233.76 22.51 237.94 21.96
  C 240.87 21.58 241.09 18.31 238.63 17.85
  C 234.91 17.15 230.77 17.34 228.41 13.70
  Q 225.98 9.94 228.65 6.50
  C 232.81 1.15 239.67 1.61 244.87 5.24
  Q 246.55 6.42 245.16 7.93
  L 244.56 8.59
  Q 243.47 9.77 242.06 9.02
  C 239.51 7.67 235.66 6.85 233.14 8.54
  A 1.02 1.02 0.0 0 0 232.70 9.34
  Z"
/>
<path fill="#feffff" d="
  M 294.45 15.04
  A 12.50 12.50 0.0 0 1 281.95 27.54
  A 12.50 12.50 0.0 0 1 269.45 15.04
  A 12.50 12.50 0.0 0 1 281.95 2.54
  A 12.50 12.50 0.0 0 1 294.45 15.04
  Z
  M 285.3244 20.9491
  A 7.12 6.99 60.7 0 0 287.9358 11.3192
  A 7.12 6.99 60.7 0 0 278.3556 8.5309
  A 7.12 6.99 60.7 0 0 275.7442 18.1608
  A 7.12 6.99 60.7 0 0 285.3244 20.9491
  Z"
/>
<path fill="#feffff" d="
  M 109.81 23.30
  Q 108.99 26.07 107.02 27.43
  A 1.32 1.30 -48.1 0 1 105.68 27.51
  Q 104.60 26.94 103.90 25.96
  Q 103.57 25.50 103.75 24.97
  Q 106.93 15.17 111.78 5.37
  C 113.26 2.39 116.69 1.72 118.31 5.02
  Q 121.82 12.14 125.70 20.92
  Q 126.78 23.37 126.82 25.55
  A 2.15 2.15 0.0 0 1 125.54 27.56
  C 122.76 28.78 121.18 25.29 120.59 23.22
  A 0.96 0.96 0.0 0 0 119.67 22.53
  L 110.77 22.58
  A 1.00 1.00 0.0 0 0 109.81 23.30
  Z
  M 112.26 16.90
  A 0.35 0.35 0.0 0 0 112.59 17.39
  L 117.86 17.36
  A 0.35 0.35 0.0 0 0 118.18 16.87
  L 115.51 11.07
  A 0.35 0.35 0.0 0 0 114.87 11.07
  L 112.26 16.90
  Z"
/>
<path fill="#feffff" d="
  M 137.85 13.96
  L 138.02 24.49
  Q 138.06 26.76 135.89 27.44
  Q 135.46 27.58 135.01 27.49
  Q 132.37 26.96 132.37 24.28
  L 132.37 5.78
  A 3.05 3.04 -68.3 0 1 137.51 3.57
  Q 141.39 7.24 144.89 11.47
  Q 145.27 11.93 145.64 11.45
  Q 148.42 7.88 150.51 5.70
  Q 157.54 -1.61 157.44 8.54
  Q 157.35 16.80 157.44 24.86
  Q 157.45 26.02 156.60 26.80
  Q 154.93 28.34 153.24 27.19
  Q 151.84 26.24 151.84 24.54
  L 151.87 13.99
  A 0.42 0.41 66.0 0 0 151.15 13.71
  Q 148.53 16.62 146.51 20.12
  A 1.33 1.33 0.0 0 1 144.35 20.32
  L 138.65 13.66
  Q 137.83 12.71 137.85 13.96
  Z"
/>
<rect fill="#feffff" x="-2.62" y="-12.38" transform="translate(257.85,15.24) rotate(0.1)" width="5.24" height="24.76" rx="2.55"/>
<path fill="#feffff" d="
  M 318.64 16.26
  Q 318.90 16.14 318.89 15.85
  Q 318.76 10.30 319.02 5.61
  Q 319.14 3.47 321.23 2.98
  Q 322.24 2.74 323.41 3.50
  A 2.24 2.22 -74.0 0 1 324.43 5.36
  Q 324.52 14.77 324.52 24.29
  C 324.52 25.78 323.65 27.23 322.17 27.59
  A 2.53 2.52 62.3 0 1 319.65 26.80
  Q 317.32 24.12 315.43 21.43
  Q 312.65 17.48 309.20 13.36
  Q 307.98 11.90 307.99 13.80
  L 308.03 24.76
  Q 308.04 26.95 305.92 27.53
  Q 304.75 27.85 303.43 26.46
  A 2.26 2.25 -67.0 0 1 302.82 24.94
  Q 302.69 15.64 302.79 6.18
  Q 302.81 4.46 304.05 3.41
  A 2.28 2.28 0.0 0 1 307.22 3.61
  Q 309.22 5.81 311.47 7.87
  C 314.12 10.29 315.46 13.51 317.96 16.14
  A 0.59 0.57 -34.3 0 0 318.64 16.26
  Z"
/>
<path fill="#feffff" d="
  M 43.18 7.91
  Q 42.28 7.91 42.28 8.82
  L 42.25 24.81
  Q 42.25 26.94 40.19 27.48
  Q 39.85 27.57 39.52 27.52
  Q 37.04 27.13 37.02 24.62
  L 36.92 8.67
  A 0.75 0.74 0.4 0 0 36.18 7.93
  L 31.13 7.88
  Q 29.24 7.87 29.00 5.99
  Q 28.96 5.60 29.07 5.24
  Q 29.79 3.00 32.14 3.00
  L 47.17 3.00
  Q 49.63 3.00 50.03 5.42
  L 50.08 5.74
  Q 50.43 7.88 48.26 7.89
  L 43.18 7.91
  Z"
/>
<path fill="#feffff" d="
  M 60.53 20.85
  L 60.54 24.38
  Q 60.55 26.41 58.78 27.39
  Q 58.12 27.75 57.51 27.56
  Q 55.11 26.82 55.12 24.32
  L 55.13 4.99
  A 2.04 2.03 -88.8 0 1 57.24 2.96
  C 62.87 3.18 70.78 1.36 73.55 8.29
  Q 76.00 14.44 70.36 19.15
  Q 69.94 19.50 70.23 19.96
  L 73.28 24.80
  Q 74.33 26.46 72.49 27.14
  L 71.77 27.40
  Q 69.57 28.22 68.25 26.26
  L 64.46 20.61
  Q 64.22 20.25 63.79 20.24
  L 61.15 20.23
  Q 60.52 20.22 60.53 20.85
  Z
  M 60.69 8.37
  L 60.65 14.59
  A 0.25 0.25 0.0 0 0 60.90 14.84
  L 65.23 14.86
  A 3.44 3.24 0.3 0 0 68.69 11.64
  L 68.69 11.40
  A 3.44 3.24 0.3 0 0 65.27 8.14
  L 60.94 8.12
  A 0.25 0.25 0.0 0 0 60.69 8.37
  Z"
/>
<path fill="#feffff" d="
  M 86.40 7.95
  Q 85.99 7.95 85.99 8.35
  L 85.98 12.52
  Q 85.97 12.82 86.27 12.81
  L 93.23 12.75
  Q 95.28 12.73 95.97 14.66
  Q 96.17 15.23 95.81 15.83
  Q 94.66 17.76 92.41 17.76
  L 86.48 17.76
  Q 85.98 17.76 85.98 18.27
  L 86.01 21.51
  Q 86.02 22.00 86.51 21.99
  L 95.24 21.85
  A 2.37 2.30 56.8 0 1 96.31 22.09
  Q 99.55 23.70 98.79 25.37
  Q 97.86 27.40 95.62 27.42
  L 84.24 27.49
  A 3.49 3.49 0.0 0 1 80.73 23.98
  L 80.82 6.10
  A 3.09 3.08 -89.8 0 1 83.90 3.03
  L 96.02 3.01
  Q 98.13 3.00 98.78 5.01
  Q 99.01 5.71 98.78 6.55
  A 1.83 1.83 0.0 0 1 97.01 7.91
  L 86.40 7.95
  Z"
/>
<path fill="#feffff" d="
  M 179.75 7.89
  Q 178.90 7.90 178.87 8.75
  L 178.75 12.22
  Q 178.73 12.72 179.23 12.71
  L 184.73 12.66
  A 2.24 2.21 -29.9 0 1 185.83 12.95
  Q 187.74 14.05 187.52 15.34
  Q 187.12 17.74 184.69 17.77
  L 179.46 17.82
  A 0.78 0.77 88.2 0 0 178.70 18.64
  Q 178.88 22.10 178.69 24.90
  Q 178.56 26.76 176.62 27.57
  Q 176.13 27.77 175.60 27.59
  Q 173.23 26.76 173.24 24.26
  L 173.33 6.46
  A 3.47 3.47 0.0 0 1 176.79 3.01
  L 188.99 2.99
  A 2.17 2.15 70.0 0 1 190.65 3.77
  Q 191.36 4.62 191.39 5.52
  Q 191.46 7.87 189.11 7.87
  L 179.75 7.89
  Z"
/>
<path fill="#feffff" d="
  M 206.33 21.71
  C 211.19 23.34 212.91 18.91 212.77 14.99
  Q 212.58 10.08 212.81 5.83
  Q 212.94 3.37 215.37 2.97
  Q 215.78 2.90 216.19 3.04
  Q 218.31 3.72 218.27 5.95
  Q 218.19 10.48 218.33 15.83
  C 218.45 20.58 216.98 23.99 212.85 26.43
  Q 208.51 28.99 203.64 26.89
  Q 196.98 24.00 196.85 17.54
  Q 196.73 11.57 196.89 5.93
  Q 196.96 3.52 199.31 2.96
  Q 199.75 2.86 200.18 2.99
  Q 202.16 3.59 202.21 5.66
  Q 202.33 10.44 202.20 15.91
  C 202.14 18.58 203.87 20.88 206.33 21.71
  Z"
/>
</svg>
