<?xml version="1.0" encoding="UTF-8" standalone="no"?>
<!DOCTYPE svg PUBLIC "-//W3C//DTD SVG 1.1//EN" "http://www.w3.org/Graphics/SVG/1.1/DTD/svg11.dtd">
<svg xmlns="http://www.w3.org/2000/svg" version="1.1" viewBox="0.00 0.00 330.00 260.00">
<g stroke-width="2.00" fill="none" stroke-linecap="butt">
<path stroke="#dee1e4" vector-effect="non-scaling-stroke" d="
  M 250.80 101.40
  Q 244.30 95.14 235.62 91.46"
/>
<path stroke="#dee1e4" vector-effect="non-scaling-stroke" d="
  M 233.72 114.01
  Q 220.55 105.95 206.98 107.55"
/>
<path stroke="#9da5ac" vector-effect="non-scaling-stroke" d="
  M 235.18 131.24
  L 221.21 130.71"
/>
<path stroke="#626d76" vector-effect="non-scaling-stroke" d="
  M 230.38 147.85
  L 216.31 147.77"
/>
<path stroke="#626d76" vector-effect="non-scaling-stroke" d="
  M 139.68 176.82
  L 164.59 164.18
  Q 165.00 163.97 165.25 163.60
  Q 165.84 162.73 166.88 162.61
  A 1.04 1.01 -75.1 0 0 167.61 162.17
  Q 168.52 160.86 169.92 160.54
  Q 171.01 160.28 172.10 159.71
  Q 174.14 158.64 176.51 158.20"
/>
<path stroke="#a3a9ae" vector-effect="non-scaling-stroke" d="
  M 199.94 156.99
  C 192.34 161.33 184.41 162.73 176.51 158.20"
/>
<path stroke="#bec3c7" vector-effect="non-scaling-stroke" d="
  M 176.51 158.20
  L 169.44 152.39"
/>
<path stroke="#d1d4d8" vector-effect="non-scaling-stroke" d="
  M 169.44 152.39
  Q 167.20 148.97 165.34 145.12
  Q 164.82 144.04 163.03 142.72
  Q 155.93 137.50 148.21 136.06"
/>
<path stroke="#8f98a0" vector-effect="non-scaling-stroke" d="
  M 169.44 152.39
  Q 168.02 152.51 166.95 153.54
  Q 166.60 153.88 166.13 154.03
  Q 164.20 154.67 162.46 155.66
  Q 159.23 157.50 158.94 157.64
  Q 155.09 159.54 151.24 161.60
  Q 148.79 162.92 146.19 163.92
  Q 141.98 165.55 138.31 167.84
  Q 136.56 168.94 134.90 169.73
  Q 133.04 170.62 131.17 171.46
  Q 130.79 171.63 130.58 171.98
  Q 130.31 172.43 129.81 172.19
  Q 129.40 172.00 129.08 172.32
  Q 128.69 172.73 128.02 172.76"
/>
</g>
<path fill="#ffffff" d="
  M 250.80 101.40
  Q 244.30 95.14 235.62 91.46
  Q 233.37 89.80 231.31 87.54
  Q 228.57 84.54 227.21 83.46
  C 217.98 76.18 206.97 72.09 195.01 72.11
  Q 167.31 72.17 138.34 72.09
  C 131.16 72.07 123.75 69.33 120.20 63.20
  Q 119.87 62.64 119.21 62.64
  L 111.05 62.69
  Q 110.44 62.69 110.56 63.29
  Q 111.29 67.10 114.14 71.27
  Q 119.41 78.96 127.55 82.71
  C 130.97 84.29 134.76 84.76 138.51 84.76
  Q 167.01 84.76 195.50 84.89
  C 202.35 84.92 207.41 86.46 213.41 89.09
  Q 216.61 90.49 219.18 92.48
  Q 229.50 100.45 233.72 114.01
  Q 220.55 105.95 206.98 107.55
  Q 203.08 105.38 198.30 104.02
  Q 194.20 102.85 189.62 102.89
  Q 162.42 103.08 134.36 102.91
  Q 127.12 102.86 120.34 99.85
  Q 102.29 91.82 96.13 71.72
  Q 93.84 64.23 94.75 55.11
  C 95.59 46.72 100.04 38.99 104.97 32.04
  Q 107.05 29.10 110.41 26.33
  C 118.06 20.04 126.27 14.51 135.07 11.50
  C 140.81 9.54 147.41 7.70 153.63 7.08
  Q 181.48 4.29 205.47 16.96
  C 211.05 19.91 215.95 24.02 221.09 27.50
  C 223.70 29.27 225.81 31.63 227.92 33.91
  A 0.32 0.32 0.0 0 1 227.69 34.45
  Q 209.65 34.60 193.07 34.46
  Q 188.95 34.43 186.68 35.33
  C 181.47 37.39 178.68 43.34 181.43 48.37
  C 184.38 53.75 188.82 53.98 194.26 53.94
  Q 219.59 53.79 240.20 53.90
  A 1.46 1.44 75.7 0 1 241.45 54.65
  Q 253.56 76.25 250.80 101.40
  Z
  M 160.49 37.79
  Q 161.29 39.45 161.59 41.32
  Q 161.80 42.67 163.16 42.85
  Q 165.29 43.14 165.67 41.12
  Q 166.13 38.72 167.62 36.79
  C 168.57 35.56 170.27 36.17 171.46 35.32
  Q 173.37 33.95 172.00 31.84
  A 2.20 2.19 -12.9 0 0 170.40 30.84
  Q 166.34 30.37 166.00 26.29
  C 165.88 24.76 164.71 23.85 163.11 24.07
  A 1.98 1.97 -0.9 0 0 161.41 25.82
  Q 160.94 30.39 156.94 30.76
  C 155.15 30.93 153.60 32.56 154.46 34.43
  A 1.94 1.92 83.8 0 0 155.77 35.49
  C 157.40 35.86 159.68 36.10 160.49 37.79
  Z
  M 120.82 50.06
  C 126.04 51.03 130.65 54.00 132.39 59.13
  Q 133.03 61.03 133.76 62.94
  Q 134.52 64.89 136.46 63.69
  A 2.17 2.17 0.0 0 0 137.46 62.22
  Q 138.50 56.06 142.45 53.16
  C 144.67 51.54 147.60 50.86 150.22 49.89
  Q 150.91 49.63 151.11 49.02
  A 1.14 1.13 20.7 0 0 150.47 47.62
  Q 147.75 46.48 145.21 45.44
  C 140.28 43.41 138.16 38.85 137.35 33.81
  A 1.28 1.28 0.0 0 0 136.75 32.91
  Q 135.51 32.14 134.34 33.11
  A 2.04 2.03 74.7 0 0 133.63 34.36
  Q 131.98 44.70 121.78 47.04
  Q 120.66 47.29 120.05 48.18
  A 1.21 1.21 0.0 0 0 120.82 50.06
  Z"
/>
<path fill="#ffffff" d="
  M 199.94 156.99
  C 192.34 161.33 184.41 162.73 176.51 158.20
  L 169.44 152.39
  Q 167.20 148.97 165.34 145.12
  Q 164.82 144.04 163.03 142.72
  Q 155.93 137.50 148.21 136.06
  Q 145.03 133.74 142.25 133.74
  Q 115.65 133.76 89.03 133.74
  A 0.98 0.96 72.7 0 1 88.23 133.31
  Q 86.99 131.42 86.64 130.52
  Q 83.52 122.56 81.53 115.81
  Q 79.00 107.24 78.65 100.64
  C 78.07 89.76 78.96 77.07 82.33 66.50
  Q 82.62 65.59 82.89 66.50
  Q 83.08 67.13 82.99 67.78
  A 2.36 2.28 44.0 0 0 83.02 68.66
  Q 84.21 73.73 85.80 79.71
  Q 86.87 83.71 90.88 89.63
  Q 97.70 99.71 106.40 106.34
  C 108.71 108.10 110.92 109.37 113.81 110.39
  C 121.23 113.02 127.01 115.10 135.00 115.13
  Q 154.44 115.23 177.29 115.21
  Q 180.72 115.20 184.96 114.69
  Q 200.40 112.81 208.20 127.03
  C 211.59 133.21 210.69 142.52 207.64 148.39
  C 205.93 151.67 202.75 154.39 199.94 156.99
  Z
  M 184.39 127.43
  C 182.09 132.99 177.94 134.68 172.65 136.55
  A 1.31 1.31 0.0 0 0 172.59 139.00
  C 176.83 140.73 180.73 141.72 183.40 145.86
  C 184.46 147.51 184.92 149.48 185.51 151.33
  A 1.63 1.63 0.0 0 0 188.40 151.76
  Q 189.01 150.89 189.15 149.82
  C 190.06 143.23 195.00 141.28 200.52 139.41
  Q 201.63 139.03 201.72 137.93
  A 1.50 1.49 11.2 0 0 200.68 136.38
  C 196.95 135.22 193.27 133.44 190.89 130.36
  C 189.56 128.63 189.41 126.08 188.70 124.03
  A 1.51 1.51 0.0 0 0 187.29 123.02
  C 185.52 123.00 184.93 126.11 184.39 127.43
  Z"
/>
<path fill="#bdc3c9" d="
  M 235.62 91.46
  Q 244.30 95.14 250.80 101.40
  Q 250.17 110.63 247.56 119.34
  Q 247.52 119.49 247.49 119.34
  Q 245.70 107.18 239.04 96.86
  Q 237.47 94.43 235.62 91.46
  Z"
/>
<path fill="#bdc3c9" d="
  M 233.72 114.01
  Q 235.70 121.39 235.18 131.24
  L 221.21 130.71
  Q 219.82 116.66 206.98 107.55
  Q 220.55 105.95 233.72 114.01
  Z"
/>
<path fill="#7c868e" d="
  M 221.21 130.71
  L 235.18 131.24
  Q 234.50 139.06 230.38 147.85
  L 216.31 147.77
  Q 222.05 140.04 221.21 130.71
  Z"
/>
<path fill="#a2a9b1" d="
  M 148.21 136.06
  Q 155.93 137.50 163.03 142.72
  Q 164.82 144.04 165.34 145.12
  Q 167.20 148.97 169.44 152.39
  Q 168.02 152.51 166.95 153.54
  Q 166.60 153.88 166.13 154.03
  Q 164.20 154.67 162.46 155.66
  Q 159.23 157.50 158.94 157.64
  Q 155.09 159.54 151.24 161.60
  Q 148.79 162.92 146.19 163.92
  Q 141.98 165.55 138.31 167.84
  Q 136.56 168.94 134.90 169.73
  Q 133.04 170.62 131.17 171.46
  Q 130.79 171.63 130.58 171.98
  Q 130.31 172.43 129.81 172.19
  Q 129.40 172.00 129.08 172.32
  Q 128.69 172.73 128.02 172.76
  Q 116.78 167.06 107.61 158.39
  Q 105.45 156.35 104.14 154.35
  Q 103.63 153.58 104.56 153.58
  Q 124.44 153.73 142.47 153.74
  C 146.42 153.74 149.26 151.68 150.87 148.06
  Q 153.68 141.73 148.21 136.06
  Z"
/>
<path fill="#47535d" d="
  M 216.31 147.77
  L 230.38 147.85
  Q 218.86 164.47 202.27 172.31
  Q 179.55 183.05 152.25 179.92
  Q 147.96 179.43 139.68 176.82
  L 164.59 164.18
  Q 165.00 163.97 165.25 163.60
  Q 165.84 162.73 166.88 162.61
  A 1.04 1.01 -75.1 0 0 167.61 162.17
  Q 168.52 160.86 169.92 160.54
  Q 171.01 160.28 172.10 159.71
  Q 174.14 158.64 176.51 158.20
  C 184.41 162.73 192.34 161.33 199.94 156.99
  Q 200.36 157.78 201.53 156.70
  Q 202.42 155.87 203.55 156.12
  Q 204.04 156.23 204.45 155.95
  L 206.25 154.73
  Q 206.91 154.28 206.12 154.30
  Q 205.70 154.32 205.33 154.40
  Q 204.33 154.63 205.05 153.90
  Q 205.30 153.65 205.65 153.64
  Q 208.56 153.53 211.16 152.14
  Q 212.83 151.24 216.31 147.77
  Z"
/>
<path fill="#7c868e" d="
  M 169.44 152.39
  L 176.51 158.20
  Q 174.14 158.64 172.10 159.71
  Q 171.01 160.28 169.92 160.54
  Q 168.52 160.86 167.61 162.17
  A 1.04 1.01 -75.1 0 1 166.88 162.61
  Q 165.84 162.73 165.25 163.60
  Q 165.00 163.97 164.59 164.18
  L 139.68 176.82
  L 128.02 172.76
  Q 128.69 172.73 129.08 172.32
  Q 129.40 172.00 129.81 172.19
  Q 130.31 172.43 130.58 171.98
  Q 130.79 171.63 131.17 171.46
  Q 133.04 170.62 134.90 169.73
  Q 136.56 168.94 138.31 167.84
  Q 141.98 165.55 146.19 163.92
  Q 148.79 162.92 151.24 161.60
  Q 155.09 159.54 158.94 157.64
  Q 159.23 157.50 162.46 155.66
  Q 164.20 154.67 166.13 154.03
  Q 166.60 153.88 166.95 153.54
  Q 168.02 152.51 169.44 152.39
  Z"
/>
<path fill="#ffffff" d="
  M 11.46 238.25
  C 13.01 242.57 23.08 237.92 24.19 247.04
  Q 24.60 250.40 22.25 253.05
  C 18.33 257.46 8.75 255.80 5.45 251.43
  Q 5.09 250.96 5.40 250.46
  Q 6.18 249.19 7.44 248.27
  A 0.82 0.82 0.0 0 1 8.32 248.21
  Q 12.69 250.58 17.48 249.87
  A 1.78 1.78 0.0 0 0 18.59 246.98
  Q 17.95 246.20 16.90 245.95
  C 12.09 244.82 4.31 243.88 5.81 236.69
  C 7.29 229.61 18.27 228.81 22.77 233.03
  Q 24.01 234.20 23.16 235.67
  Q 23.05 235.86 22.95 236.06
  Q 21.87 238.24 19.80 236.87
  Q 17.28 235.20 12.96 235.79
  A 1.86 1.85 -13.7 0 0 11.46 238.25
  Z"
/>
<path fill="#ffffff" d="
  M 232.70 237.38
  C 232.83 242.47 246.41 238.06 246.28 247.60
  C 246.15 256.96 232.02 258.01 227.27 251.41
  Q 226.92 250.91 227.21 250.38
  Q 228.10 248.80 229.69 248.14
  Q 230.17 247.94 230.59 248.23
  Q 234.63 251.01 239.03 249.64
  Q 240.47 249.19 240.29 247.68
  A 2.12 2.11 2.3 0 0 238.60 245.86
  C 234.89 245.13 230.45 245.25 228.26 241.55
  C 226.07 237.85 227.81 234.72 230.77 232.32
  C 234.65 229.16 240.99 230.54 244.86 233.24
  Q 246.54 234.41 245.17 235.92
  L 244.64 236.51
  Q 243.50 237.77 241.99 236.98
  C 239.44 235.65 235.64 234.86 233.12 236.56
  A 0.94 0.94 0.0 0 0 232.70 237.38
  Z"
/>
<path fill="#ffffff" d="
  M 294.45 243.04
  A 12.50 12.50 0.0 0 1 281.95 255.54
  A 12.50 12.50 0.0 0 1 269.45 243.04
  A 12.50 12.50 0.0 0 1 281.95 230.54
  A 12.50 12.50 0.0 0 1 294.45 243.04
  Z
  M 285.3352 248.9430
  A 7.12 6.99 60.6 0 0 287.9298 239.3086
  A 7.12 6.99 60.6 0 0 278.3448 236.5370
  A 7.12 6.99 60.6 0 0 275.7502 246.1714
  A 7.12 6.99 60.6 0 0 285.3352 248.9430
  Z"
/>
<path fill="#ffffff" d="
  M 109.78 251.35
  Q 108.99 254.05 107.00 255.46
  A 1.20 1.20 0.0 0 1 105.82 255.57
  Q 104.88 255.13 104.15 254.30
  Q 103.52 253.59 103.82 252.67
  Q 107.02 243.09 111.64 233.64
  C 113.14 230.56 116.56 229.46 118.33 233.06
  Q 122.25 241.01 125.85 249.34
  Q 126.70 251.29 126.83 253.35
  A 2.28 2.26 77.8 0 1 125.36 255.64
  C 122.70 256.63 121.15 253.21 120.59 251.22
  A 0.94 0.93 81.4 0 0 119.68 250.54
  L 110.80 250.58
  Q 110.01 250.58 109.78 251.35
  Z
  M 112.26 244.90
  A 0.35 0.35 0.0 0 0 112.59 245.39
  L 117.86 245.36
  A 0.35 0.35 0.0 0 0 118.18 244.87
  L 115.51 239.07
  A 0.35 0.35 0.0 0 0 114.87 239.07
  L 112.26 244.90
  Z"
/>
<path fill="#ffffff" d="
  M 137.85 241.96
  L 138.02 252.42
  Q 138.06 254.62 136.00 255.41
  Q 135.55 255.58 135.08 255.50
  Q 132.37 255.08 132.37 252.34
  L 132.37 233.94
  A 3.11 3.11 0.0 0 1 137.62 231.68
  Q 141.46 235.33 144.89 239.47
  Q 145.31 239.98 145.71 239.45
  Q 148.33 235.91 150.49 233.68
  Q 157.53 226.44 157.43 236.53
  Q 157.36 244.28 157.53 252.47
  A 2.60 2.60 0.0 0 1 157.01 254.09
  Q 155.53 256.07 154.11 255.62
  Q 151.84 254.89 151.84 252.50
  L 151.87 241.99
  A 0.42 0.41 66.0 0 0 151.15 241.71
  Q 148.53 244.62 146.51 248.12
  A 1.33 1.33 0.0 0 1 144.35 248.32
  L 138.65 241.66
  Q 137.83 240.71 137.85 241.96
  Z"
/>
<rect fill="#ffffff" x="-2.62" y="-12.38" transform="translate(257.86,243.24) rotate(0.1)" width="5.24" height="24.76" rx="2.55"/>
<path fill="#ffffff" d="
  M 317.98 244.10
  Q 318.83 244.94 318.84 243.74
  L 318.92 234.07
  Q 318.94 231.87 320.98 231.04
  Q 321.37 230.88 321.77 230.93
  Q 324.42 231.24 324.44 233.91
  Q 324.52 243.15 324.51 252.44
  C 324.51 255.30 321.30 256.86 319.31 254.47
  C 315.69 250.11 312.77 245.45 309.10 241.30
  Q 307.98 240.02 307.99 241.72
  L 308.03 252.79
  Q 308.04 255.20 305.66 255.59
  Q 304.55 255.77 303.29 254.12
  A 2.25 2.24 26.0 0 1 302.83 252.79
  Q 302.68 243.43 302.79 234.25
  Q 302.81 232.61 303.90 231.53
  A 2.28 2.27 -44.1 0 1 307.16 231.57
  Q 309.37 233.90 311.58 236.02
  C 314.20 238.55 315.45 241.61 317.98 244.10
  Z"
/>
<path fill="#ffffff" d="
  M 36.05 235.92
  L 31.23 235.91
  Q 29.14 235.91 28.97 233.82
  Q 28.93 233.42 29.14 233.03
  Q 30.24 231.00 32.55 231.00
  L 47.17 231.00
  Q 49.63 231.00 50.03 233.42
  L 50.08 233.74
  Q 50.43 235.88 48.26 235.89
  L 43.18 235.91
  A 0.91 0.90 90.0 0 0 42.28 236.82
  L 42.25 252.85
  Q 42.25 255.06 40.08 255.52
  Q 39.74 255.59 39.40 255.51
  Q 37.03 254.96 37.02 252.53
  L 36.93 236.80
  Q 36.93 235.92 36.05 235.92
  Z"
/>
<path fill="#ffffff" d="
  M 60.53 248.84
  L 60.54 252.56
  Q 60.55 254.65 58.63 255.46
  Q 58.05 255.71 57.48 255.54
  Q 55.11 254.84 55.11 252.37
  L 55.13 233.01
  A 2.06 2.06 0.0 0 1 57.25 230.96
  Q 60.76 231.06 64.35 230.93
  C 73.97 230.60 77.78 241.25 70.37 247.13
  Q 69.93 247.48 70.23 247.96
  L 73.27 252.78
  Q 74.30 254.41 72.51 255.12
  L 71.89 255.37
  Q 69.62 256.28 68.26 254.26
  L 64.49 248.67
  Q 64.21 248.25 63.71 248.25
  L 61.16 248.21
  Q 60.53 248.21 60.53 248.84
  Z
  M 60.68 236.38
  L 60.66 242.60
  A 0.25 0.25 0.0 0 0 60.91 242.85
  L 65.21 242.86
  A 3.47 3.24 0.2 0 0 68.69 239.63
  L 68.69 239.39
  A 3.47 3.24 0.2 0 0 65.23 236.14
  L 60.93 236.13
  A 0.25 0.25 0.0 0 0 60.68 236.38
  Z"
/>
<path fill="#ffffff" d="
  M 86.52 235.95
  Q 85.99 235.95 85.98 236.48
  L 85.98 240.53
  Q 85.98 240.82 86.28 240.82
  L 93.41 240.74
  Q 95.53 240.72 96.01 242.78
  Q 96.14 243.36 95.73 243.94
  Q 94.45 245.76 92.23 245.76
  L 86.48 245.76
  Q 85.98 245.76 85.98 246.27
  L 86.01 249.50
  Q 86.02 249.99 86.50 249.98
  L 96.04 249.85
  A 2.52 2.52 0.0 0 1 97.89 250.61
  Q 99.95 252.72 97.88 254.73
  A 2.37 2.36 22.7 0 1 96.22 255.41
  L 84.11 255.48
  A 3.36 3.35 -0.0 0 1 80.73 252.11
  L 80.82 234.10
  A 3.10 3.09 -89.9 0 1 83.90 231.02
  L 95.91 231.01
  Q 97.97 231.00 98.75 232.91
  Q 99.13 233.84 98.53 234.96
  A 1.79 1.78 13.8 0 1 96.95 235.91
  L 86.52 235.95
  Z"
/>
<path fill="#ffffff" d="
  M 179.51 235.90
  Q 178.92 235.90 178.89 236.49
  L 178.75 239.97
  Q 178.72 240.71 179.47 240.71
  L 184.98 240.67
  A 1.83 1.80 59.5 0 1 185.88 240.91
  Q 187.62 241.90 187.55 243.19
  Q 187.41 245.74 184.85 245.76
  L 179.47 245.82
  A 0.78 0.77 -2.1 0 0 178.70 246.64
  Q 178.88 250.10 178.69 252.89
  Q 178.56 254.77 176.61 255.58
  Q 176.18 255.76 175.72 255.64
  Q 173.22 254.95 173.24 252.35
  L 173.34 234.33
  A 3.34 3.34 0.0 0 1 176.67 231.01
  L 188.79 230.99
  Q 190.88 230.99 191.29 233.03
  L 191.45 233.79
  Q 191.87 235.86 189.75 235.87
  L 179.51 235.90
  Z"
/>
<path fill="#ffffff" d="
  M 206.30 249.70
  C 210.89 251.30 212.88 247.25 212.76 243.40
  Q 212.59 238.25 212.82 233.39
  A 2.30 2.28 -17.4 0 1 213.73 231.67
  Q 214.87 230.80 216.01 231.01
  Q 218.26 231.44 218.26 233.73
  Q 218.27 239.11 218.27 245.32
  Q 218.28 250.97 213.14 254.25
  Q 208.65 257.12 203.43 254.80
  Q 196.98 251.93 196.84 245.44
  Q 196.71 239.68 196.90 233.25
  A 2.17 2.16 -15.7 0 1 197.89 231.49
  Q 198.98 230.77 200.02 230.99
  Q 202.15 231.43 202.21 233.62
  Q 202.33 238.42 202.20 243.90
  C 202.14 246.58 203.86 248.85 206.30 249.70
  Z"
/>
</svg>
