<?xml version="1.0" encoding="UTF-8" standalone="no"?>
<!DOCTYPE svg PUBLIC "-//W3C//DTD SVG 1.1//EN" "http://www.w3.org/Graphics/SVG/1.1/DTD/svg11.dtd">
<svg xmlns="http://www.w3.org/2000/svg" version="1.1" viewBox="0.00 0.00 180.00 180.00">
<g stroke-width="2.00" fill="none" stroke-linecap="butt">
<path stroke="#dadde1" vector-effect="non-scaling-stroke" d="
  M 175.86 98.08
  Q 168.80 92.00 160.64 88.56"
/>
<path stroke="#dadde1" vector-effect="non-scaling-stroke" d="
  M 158.71 110.96
  Q 145.38 103.02 131.70 104.43"
/>
<path stroke="#949da5" vector-effect="non-scaling-stroke" d="
  M 159.06 135.14
  L 146.00 134.38"
/>
<path stroke="#5b6670" vector-effect="non-scaling-stroke" d="
  M 152.56 148.78
  Q 152.08 148.90 151.75 148.88
  Q 151.55 148.87 151.08 148.51
  Q 150.68 148.20 150.22 148.25
  Q 149.33 148.34 149.24 148.33
  Q 143.86 147.77 138.17 147.71"
/>
<path stroke="#5b6670" vector-effect="non-scaling-stroke" d="
  M 71.08 175.63
  Q 72.81 175.25 74.30 173.47
  Q 74.68 173.01 75.26 172.90
  Q 76.77 172.60 78.45 172.10
  Q 80.05 171.62 81.60 170.82
  Q 84.93 169.11 88.22 167.46
  Q 89.51 166.82 90.68 166.00
  Q 91.93 165.12 93.40 164.58
  Q 93.88 164.41 94.21 164.02
  Q 97.33 160.36 102.05 159.01
  Q 102.51 158.88 102.84 158.53
  Q 103.17 158.18 103.46 157.76
  Q 103.83 157.23 104.45 157.40
  Q 105.20 157.61 106.20 157.19"
/>
<path stroke="#727c85" vector-effect="non-scaling-stroke" d="
  M 126.14 154.24
  Q 128.37 154.77 129.83 152.13"
/>
<path stroke="#a1a7ac" vector-effect="non-scaling-stroke" d="
  M 124.75 154.19
  C 118.71 157.25 113.03 159.18 106.20 157.19"
/>
<path stroke="#babfc4" vector-effect="non-scaling-stroke" d="
  M 106.20 157.19
  Q 99.41 155.00 94.46 149.39"
/>
<path stroke="#d1d5d8" vector-effect="non-scaling-stroke" d="
  M 94.46 149.39
  Q 92.59 146.57 91.01 143.41
  Q 89.83 141.06 88.15 139.77
  Q 81.51 134.74 73.21 133.06"
/>
<path stroke="#8b949d" vector-effect="non-scaling-stroke" d="
  M 94.46 149.39
  Q 93.57 149.68 92.66 149.91
  Q 91.83 150.12 91.14 150.56
  Q 89.40 151.68 87.27 152.46
  Q 84.31 153.55 81.49 155.39
  Q 80.69 155.91 79.71 156.16
  C 78.19 156.54 77.04 157.65 75.54 158.10
  Q 73.88 158.59 72.52 159.48
  Q 71.12 160.40 69.66 161.14
  Q 65.24 163.37 60.53 165.89
  Q 56.65 167.96 52.78 169.65"
/>
</g>
<path fill="#ffffff" d="
  M 175.86 98.08
  Q 168.80 92.00 160.64 88.56
  Q 159.75 87.76 158.42 86.63
  Q 157.22 85.60 156.22 84.41
  C 150.50 77.54 140.11 72.39 131.38 70.31
  Q 126.03 69.04 116.27 69.09
  Q 93.09 69.21 65.33 69.06
  Q 58.27 69.02 54.73 67.73
  Q 48.45 65.45 45.00 60.07
  A 0.95 0.94 73.4 0 0 44.21 59.64
  L 36.03 59.68
  Q 35.47 59.68 35.57 60.24
  Q 36.23 63.96 38.90 67.91
  C 44.38 76.04 52.73 81.79 62.60 81.77
  Q 96.06 81.72 121.88 81.92
  C 127.89 81.97 133.04 83.76 138.52 86.15
  Q 141.69 87.53 144.34 89.60
  Q 154.52 97.56 158.71 110.96
  Q 145.38 103.02 131.70 104.43
  Q 127.52 102.05 122.56 100.82
  Q 118.58 99.82 113.57 99.87
  Q 77.16 100.16 57.68 99.83
  Q 53.34 99.76 48.86 98.19
  Q 28.93 91.23 21.67 70.49
  Q 19.27 63.62 19.52 55.28
  Q 19.76 47.08 23.49 39.73
  Q 26.14 34.49 29.70 29.41
  Q 32.14 25.92 36.43 22.48
  Q 45.17 15.46 52.75 11.60
  C 61.43 7.17 73.08 4.21 83.16 3.69
  Q 108.78 2.39 130.70 14.09
  C 135.97 16.90 140.46 20.68 145.36 23.98
  C 148.35 25.99 150.60 28.33 152.95 30.97
  A 0.31 0.31 0.0 0 1 152.72 31.48
  Q 134.94 31.54 117.08 31.50
  C 112.64 31.49 108.38 33.00 106.39 37.08
  Q 104.18 41.62 106.60 45.65
  C 110.01 51.32 114.11 50.85 120.99 50.86
  Q 143.84 50.89 165.28 50.87
  A 1.15 1.15 0.0 0 1 166.28 51.45
  C 174.44 65.66 177.43 80.96 175.86 98.08
  Z
  M 95.03 27.79
  C 92.70 27.60 91.04 25.54 91.00 23.28
  A 2.29 2.29 0.0 0 0 88.64 21.04
  C 85.26 21.14 87.35 27.34 81.87 27.77
  C 80.28 27.90 78.86 29.36 79.29 31.02
  A 1.72 1.70 -83.5 0 0 80.13 32.09
  Q 81.44 32.80 83.00 33.05
  C 85.77 33.49 86.26 36.48 86.70 38.75
  A 1.18 1.17 -84.5 0 0 87.41 39.62
  Q 88.49 40.05 89.63 39.69
  Q 90.23 39.49 90.40 38.89
  C 91.01 36.70 91.88 32.91 94.83 32.85
  C 98.38 32.77 98.40 28.05 95.03 27.79
  Z
  M 45.77 47.03
  C 51.45 48.15 56.10 51.35 57.70 57.03
  Q 58.14 58.58 58.84 60.08
  Q 59.70 61.92 61.57 60.60
  A 2.38 2.34 -13.4 0 0 62.52 59.08
  C 63.42 53.48 66.12 50.11 71.12 48.33
  C 72.51 47.83 73.84 47.43 75.23 46.84
  A 1.27 1.27 0.0 0 0 75.20 44.49
  Q 72.14 43.28 69.46 42.10
  C 65.26 40.23 63.10 35.61 62.43 31.02
  A 1.70 1.69 80.9 0 0 60.48 29.60
  Q 58.88 29.87 58.61 31.47
  Q 56.90 41.69 46.95 43.99
  Q 45.90 44.23 45.15 44.99
  A 1.21 1.21 0.0 0 0 45.77 47.03
  Z"
/>
<path fill="#ffffff" d="
  M 124.75 154.19
  C 118.71 157.25 113.03 159.18 106.20 157.19
  Q 99.41 155.00 94.46 149.39
  Q 92.59 146.57 91.01 143.41
  Q 89.83 141.06 88.15 139.77
  Q 81.51 134.74 73.21 133.06
  Q 70.00 130.73 67.25 130.73
  Q 40.64 130.76 14.01 130.74
  Q 13.44 130.74 13.17 130.24
  C 12.38 128.83 11.49 127.53 10.97 125.96
  C 8.75 119.26 6.29 113.31 4.74 105.84
  C 2.46 94.83 3.41 82.34 5.37 71.18
  Q 6.08 67.14 7.44 63.42
  Q 7.75 62.56 7.93 63.46
  C 8.09 64.32 7.90 65.25 8.11 66.09
  C 9.35 71.05 10.22 76.58 12.60 81.07
  Q 19.51 94.15 31.37 103.35
  C 35.95 106.90 41.14 108.14 46.44 109.99
  Q 52.49 112.10 59.75 112.13
  Q 79.34 112.20 102.77 112.24
  Q 106.12 112.24 109.31 111.69
  C 119.05 110.00 128.26 114.75 132.95 123.55
  Q 136.50 130.21 134.79 139.12
  Q 133.52 145.72 130.07 149.07
  Q 127.42 151.65 124.75 154.19
  Z
  M 108.64 126.05
  C 106.15 130.39 102.27 131.96 97.72 133.50
  A 1.36 1.36 0.0 0 0 97.65 136.05
  C 101.52 137.61 104.70 138.38 107.62 141.77
  C 109.27 143.69 109.83 146.19 110.60 148.55
  Q 110.76 149.01 111.20 149.23
  Q 112.14 149.69 113.19 149.03
  A 1.69 1.69 0.0 0 0 113.99 147.75
  C 114.74 140.18 119.69 138.62 125.78 136.25
  Q 126.67 135.90 126.73 134.92
  A 1.55 1.54 -80.2 0 0 125.64 133.36
  C 121.93 132.22 118.27 130.43 115.91 127.39
  C 114.57 125.65 114.40 123.08 113.69 121.02
  A 1.52 1.52 0.0 0 0 110.96 120.72
  C 109.95 122.35 109.61 124.37 108.64 126.05
  Z"
/>
<path fill="#b4bbc2" d="
  M 175.86 98.08
  Q 175.36 106.08 172.73 115.94
  Q 172.52 116.74 172.40 115.92
  Q 170.41 101.53 160.64 88.56
  Q 168.80 92.00 175.86 98.08
  Z"
/>
<path fill="#b4bbc2" d="
  M 158.71 110.96
  Q 161.71 122.75 159.06 135.14
  L 146.00 134.38
  Q 148.01 115.67 131.70 104.43
  Q 145.38 103.02 158.71 110.96
  Z"
/>
<path fill="#a2aab1" d="
  M 73.21 133.06
  Q 81.51 134.74 88.15 139.77
  Q 89.83 141.06 91.01 143.41
  Q 92.59 146.57 94.46 149.39
  Q 93.57 149.68 92.66 149.91
  Q 91.83 150.12 91.14 150.56
  Q 89.40 151.68 87.27 152.46
  Q 84.31 153.55 81.49 155.39
  Q 80.69 155.91 79.71 156.16
  C 78.19 156.54 77.04 157.65 75.54 158.10
  Q 73.88 158.59 72.52 159.48
  Q 71.12 160.40 69.66 161.14
  Q 65.24 163.37 60.53 165.89
  Q 56.65 167.96 52.78 169.65
  Q 41.47 163.82 32.40 155.10
  Q 30.39 153.18 29.16 151.39
  Q 28.59 150.57 29.59 150.57
  Q 48.44 150.71 67.18 150.76
  C 71.29 150.77 74.18 148.81 75.84 145.12
  Q 78.71 138.76 73.21 133.06
  Z"
/>
<path fill="#747e88" d="
  M 146.00 134.38
  L 159.06 135.14
  Q 158.40 137.36 155.75 143.50
  Q 154.16 147.18 152.56 148.78
  Q 152.08 148.90 151.75 148.88
  Q 151.55 148.87 151.08 148.51
  Q 150.68 148.20 150.22 148.25
  Q 149.33 148.34 149.24 148.33
  Q 143.86 147.77 138.17 147.71
  Q 144.53 142.31 146.00 134.38
  Z"
/>
<path fill="#424e58" d="
  M 138.17 147.71
  Q 143.86 147.77 149.24 148.33
  Q 149.33 148.34 150.22 148.25
  Q 150.68 148.20 151.08 148.51
  Q 151.55 148.87 151.75 148.88
  Q 152.08 148.90 152.56 148.78
  C 146.87 155.77 141.24 160.66 133.87 165.51
  Q 128.29 169.18 122.21 171.45
  Q 102.10 178.99 80.50 177.22
  Q 75.66 176.82 71.08 175.63
  Q 72.81 175.25 74.30 173.47
  Q 74.68 173.01 75.26 172.90
  Q 76.77 172.60 78.45 172.10
  Q 80.05 171.62 81.60 170.82
  Q 84.93 169.11 88.22 167.46
  Q 89.51 166.82 90.68 166.00
  Q 91.93 165.12 93.40 164.58
  Q 93.88 164.41 94.21 164.02
  Q 97.33 160.36 102.05 159.01
  Q 102.51 158.88 102.84 158.53
  Q 103.17 158.18 103.46 157.76
  Q 103.83 157.23 104.45 157.40
  Q 105.20 157.61 106.20 157.19
  C 113.03 159.18 118.71 157.25 124.75 154.19
  Q 125.00 154.54 126.14 154.24
  Q 128.37 154.77 129.83 152.13
  Q 130.69 152.38 131.17 151.88
  Q 131.64 151.37 130.95 151.37
  L 130.24 151.37
  Q 129.99 151.37 130.06 151.14
  Q 130.10 150.99 130.20 150.88
  Q 130.29 150.77 130.45 150.76
  Q 134.85 150.30 138.17 147.71
  Z"
/>
<path fill="#747e88" d="
  M 94.46 149.39
  Q 99.41 155.00 106.20 157.19
  Q 105.20 157.61 104.45 157.40
  Q 103.83 157.23 103.46 157.76
  Q 103.17 158.18 102.84 158.53
  Q 102.51 158.88 102.05 159.01
  Q 97.33 160.36 94.21 164.02
  Q 93.88 164.41 93.40 164.58
  Q 91.93 165.12 90.68 166.00
  Q 89.51 166.82 88.22 167.46
  Q 84.93 169.11 81.60 170.82
  Q 80.05 171.62 78.45 172.10
  Q 76.77 172.60 75.26 172.90
  Q 74.68 173.01 74.30 173.47
  Q 72.81 175.25 71.08 175.63
  L 52.78 169.65
  Q 56.65 167.96 60.53 165.89
  Q 65.24 163.37 69.66 161.14
  Q 71.12 160.40 72.52 159.48
  Q 73.88 158.59 75.54 158.10
  C 77.04 157.65 78.19 156.54 79.71 156.16
  Q 80.69 155.91 81.49 155.39
  Q 84.31 153.55 87.27 152.46
  Q 89.40 151.68 91.14 150.56
  Q 91.83 150.12 92.66 149.91
  Q 93.57 149.68 94.46 149.39
  Z"
/>
<path fill="#a2aab1" d="
  M 129.83 152.13
  Q 128.37 154.77 126.14 154.24
  L 129.83 152.13
  Z"
/>
</svg>
